<?xml version="1.0" standalone="no"?><!-- Generator: Gravit.io --><svg xmlns="http://www.w3.org/2000/svg" xmlns:xlink="http://www.w3.org/1999/xlink" style="isolation:isolate" viewBox="0 0 618.3 147.4" width="618.3" height="147.4"><defs><clipPath id="_clipPath_2BosLqt38ZJ8icjDhovhiqv4s4hQxCph"><rect width="618.3" height="147.4"/></clipPath></defs><g clip-path="url(#_clipPath_2BosLqt38ZJ8icjDhovhiqv4s4hQxCph)"><rect x="0" y="0" width="618.3" height="147.4" transform="matrix(1,0,0,1,0,0)" fill="none"/><g id="Group"><path d="M 15.427 0 L 133.573 0 C 142.087 0 149 6.913 149 15.427 L 149 133.573 C 149 142.087 142.087 149 133.573 149 L 15.427 149 C 6.913 149 0 142.087 0 133.573 L 0 15.427 C 0 6.913 6.913 0 15.427 0 Z" style="stroke:none;fill:#3870E4;stroke-miterlimit:10;"/><path d=" M 22.952 55.195 C 25.113 52.954 28.073 50.604 30.24 51.616 C 32.536 52.689 33.901 57.854 35.274 59.963 C 39.147 65.913 48.677 66.858 52.83 61.085 C 56.541 55.928 57.523 48.811 50.515 44.324 C 48.848 43.257 43.112 41.065 42.566 38.761 C 42.159 37.044 45.738 32.398 48.133 30.677 C 51.031 28.595 53.267 26.269 56.018 24.514 L 66.818 17.82 L 67.017 18.019 C 69.491 22.911 72.928 27.522 76.157 32.327 Q 77.912 34.414 79.667 36.501 C 81.522 39.096 85.813 42.549 87.815 41.998 C 89.98 41.401 92.179 35.726 93.315 33.98 C 97.255 27.929 106.783 26.874 110.938 32.652 C 111.884 33.966 112.871 35.127 113.389 36.427 C 115.009 40.498 113.859 46.654 108.285 50.01 C 106.366 51.165 100.942 52.639 100.466 55.179 C 100.023 57.543 103.365 61.417 106.095 63.326 C 109.978 66.041 113.555 68.644 117.423 70.943 Q 120.502 72.764 123.583 74.585 L 119.143 82.072 C 117.096 85.534 114.679 88.678 112.25 92.144 C 110.285 94.95 106.438 98.071 104.167 97.711 C 101.545 97.295 99.967 91.681 98.736 89.629 C 94.458 82.502 87.104 83.287 81.909 86.983 C 75.777 91.345 77.004 101.087 83.495 105.003 C 85.076 105.957 91.392 108.512 91.179 110.964 C 90.989 113.141 88.353 115.511 86.208 117.656 C 81.663 122.201 77.119 125.138 72.492 127.795 C 71.41 128.416 67.469 131.322 66.661 131.109 C 63.842 125.07 59.208 118.792 54.342 112.959 C 52.241 110.439 48.258 106.566 46.062 107.064 C 43.717 107.596 41.527 113.357 40.297 115.214 C 36.107 121.542 26.625 122.178 22.078 115.682 C 18.495 110.564 18.339 103.334 25.46 99.052 C 27.369 97.905 32.74 96.47 33.213 93.949 C 33.615 91.801 30.797 88.127 28.179 86.265 C 24.634 83.744 21.441 81.276 17.912 79.179 Q 14.004 76.861 10.095 74.543 L 18.115 61.49 L 22.952 55.195 Z " fill-rule="evenodd" fill="rgb(255,255,255)"/><path d=" M 38.021 55.195 C 40.183 52.954 43.143 50.604 45.31 51.616 C 47.605 52.689 48.971 57.854 50.344 59.963 C 54.217 65.913 63.746 66.858 67.9 61.085 C 71.61 55.928 72.593 48.811 65.585 44.324 C 63.918 43.257 58.182 41.065 57.636 38.761 C 57.229 37.044 60.807 32.398 63.203 30.677 C 66.101 28.595 68.336 26.269 71.088 24.514 L 81.888 17.82 L 82.087 18.019 C 84.561 22.911 87.998 27.522 91.227 32.327 Q 92.982 34.414 94.737 36.501 C 96.592 39.096 100.883 42.549 102.885 41.998 C 105.049 41.401 107.249 35.726 108.385 33.98 C 112.324 27.929 121.853 26.874 126.008 32.652 C 126.954 33.966 127.941 35.127 128.458 36.427 C 130.078 40.498 128.928 46.654 123.354 50.01 C 121.435 51.165 116.012 52.639 115.536 55.179 C 115.093 57.543 118.434 61.417 121.165 63.326 C 125.047 66.041 128.624 68.644 132.492 70.943 Q 135.572 72.764 138.653 74.585 L 134.212 82.072 C 132.165 85.534 129.748 88.678 127.32 92.144 C 125.354 94.95 121.508 98.071 119.236 97.711 C 116.615 97.295 115.037 91.681 113.806 89.629 C 109.528 82.502 102.174 83.287 96.979 86.983 C 90.847 91.345 92.074 101.087 98.564 105.003 C 100.146 105.957 106.462 108.512 106.248 110.964 C 106.059 113.141 103.423 115.511 101.278 117.656 C 96.733 122.201 92.189 125.138 87.562 127.795 C 86.48 128.416 82.538 131.322 81.731 131.109 C 78.912 125.07 74.278 118.792 69.412 112.959 C 67.31 110.439 63.327 106.566 61.132 107.064 C 58.787 107.596 56.596 113.357 55.367 115.214 C 51.177 121.542 41.695 122.178 37.147 115.682 C 33.565 110.564 33.408 103.334 40.53 99.052 C 42.439 97.905 47.81 96.47 48.282 93.949 C 48.685 91.801 45.867 88.127 43.249 86.265 C 39.704 83.744 36.511 81.276 32.982 79.179 Q 29.074 76.861 25.165 74.543 L 33.184 61.49 L 38.021 55.195 Z " fill-rule="evenodd" fill="rgb(34,64,125)"/></g><path d=" M 251.33 65.18 L 251.33 65.18 Q 255.306 65.18 257.649 67.381 L 257.649 67.381 L 257.649 67.381 Q 259.992 69.582 259.992 73.416 L 259.992 73.416 L 259.992 101.106 L 259.992 101.106 Q 259.992 106.786 259.069 109.91 L 259.069 109.91 L 259.069 109.91 Q 258.146 113.034 255.874 114.88 L 255.874 114.88 L 255.874 114.88 Q 253.602 116.726 249.058 118.004 L 249.058 118.004 L 249.058 118.004 Q 243.52 119.708 236.349 120.702 L 236.349 120.702 L 236.349 120.702 Q 229.178 121.696 222.788 121.696 L 222.788 121.696 L 222.788 121.696 Q 206.884 121.696 195.24 115.519 L 195.24 115.519 L 195.24 115.519 Q 183.596 109.342 177.348 97.769 L 177.348 97.769 L 177.348 97.769 Q 171.1 86.196 171.1 70.292 L 171.1 70.292 L 171.1 70.292 Q 171.1 54.672 177.277 43.099 L 177.277 43.099 L 177.277 43.099 Q 183.454 31.526 194.956 25.278 L 194.956 25.278 L 194.956 25.278 Q 206.458 19.03 221.794 19.03 L 221.794 19.03 L 221.794 19.03 Q 241.532 19.03 254.454 29.254 L 254.454 29.254 L 254.454 29.254 Q 256.584 30.958 257.436 32.662 L 257.436 32.662 L 257.436 32.662 Q 258.288 34.366 258.288 36.922 L 258.288 36.922 L 258.288 36.922 Q 258.288 40.614 256.229 43.241 L 256.229 43.241 L 256.229 43.241 Q 254.17 45.868 251.33 45.868 L 251.33 45.868 L 251.33 45.868 Q 249.484 45.868 247.993 45.3 L 247.993 45.3 L 247.993 45.3 Q 246.502 44.732 244.372 43.454 L 244.372 43.454 L 244.372 43.454 Q 238.408 39.762 233.438 38.2 L 233.438 38.2 L 233.438 38.2 Q 228.468 36.638 222.504 36.638 L 222.504 36.638 L 222.504 36.638 Q 193.536 36.638 193.536 70.292 L 193.536 70.292 L 193.536 70.292 Q 193.536 87.616 201.062 96.136 L 201.062 96.136 L 201.062 96.136 Q 208.588 104.656 223.782 104.656 L 223.782 104.656 L 223.782 104.656 Q 232.018 104.656 240.112 102.526 L 240.112 102.526 L 240.112 80.516 L 227.048 80.516 L 227.048 80.516 Q 222.93 80.516 220.658 78.528 L 220.658 78.528 L 220.658 78.528 Q 218.386 76.54 218.386 72.848 L 218.386 72.848 L 218.386 72.848 Q 218.386 69.156 220.658 67.168 L 220.658 67.168 L 220.658 67.168 Q 222.93 65.18 227.048 65.18 L 227.048 65.18 L 251.33 65.18 L 251.33 65.18 Z  M 359.96 125.246 L 363.936 131.778 L 363.936 131.778 Q 365.924 134.902 365.924 137.884 L 365.924 137.884 L 365.924 137.884 Q 365.924 141.718 362.729 144.274 L 362.729 144.274 L 362.729 144.274 Q 359.534 146.83 355.274 146.83 L 355.274 146.83 L 355.274 146.83 Q 352.292 146.83 349.665 145.41 L 349.665 145.41 L 349.665 145.41 Q 347.038 143.99 345.476 141.292 L 345.476 141.292 L 336.956 127.092 L 336.956 127.092 Q 335.252 124.252 332.412 122.974 L 332.412 122.974 L 332.412 122.974 Q 329.572 121.696 324.744 121.696 L 324.744 121.696 L 324.744 121.696 Q 309.834 121.696 298.829 115.377 L 298.829 115.377 L 298.829 115.377 Q 287.824 109.058 281.86 97.485 L 281.86 97.485 L 281.86 97.485 Q 275.896 85.912 275.896 70.292 L 275.896 70.292 L 275.896 70.292 Q 275.896 54.672 281.86 43.099 L 281.86 43.099 L 281.86 43.099 Q 287.824 31.526 298.829 25.278 L 298.829 25.278 L 298.829 25.278 Q 309.834 19.03 324.744 19.03 L 324.744 19.03 L 324.744 19.03 Q 339.654 19.03 350.659 25.278 L 350.659 25.278 L 350.659 25.278 Q 361.664 31.526 367.628 43.099 L 367.628 43.099 L 367.628 43.099 Q 373.592 54.672 373.592 70.292 L 373.592 70.292 L 373.592 70.292 Q 373.592 86.622 367.131 98.479 L 367.131 98.479 L 367.131 98.479 Q 360.67 110.336 348.742 116.158 L 348.742 116.158 L 348.742 116.158 Q 355.7 118.288 359.96 125.246 L 359.96 125.246 L 359.96 125.246 Z  M 324.744 104.514 L 324.744 104.514 Q 337.24 104.514 344.411 95.71 L 344.411 95.71 L 344.411 95.71 Q 351.582 86.906 351.582 70.292 L 351.582 70.292 L 351.582 70.292 Q 351.582 53.678 344.482 44.945 L 344.482 44.945 L 344.482 44.945 Q 337.382 36.212 324.744 36.212 L 324.744 36.212 L 324.744 36.212 Q 312.106 36.212 305.077 44.945 L 305.077 44.945 L 305.077 44.945 Q 298.048 53.678 298.048 70.292 L 298.048 70.292 L 298.048 70.292 Q 298.048 86.906 305.148 95.71 L 305.148 95.71 L 305.148 95.71 Q 312.248 104.514 324.744 104.514 L 324.744 104.514 L 324.744 104.514 Z  M 401.566 121.27 L 401.566 121.27 Q 396.454 121.27 393.472 118.288 L 393.472 118.288 L 393.472 118.288 Q 390.49 115.306 390.49 110.194 L 390.49 110.194 L 390.49 30.674 L 390.49 30.674 Q 390.49 25.704 393.188 23.006 L 393.188 23.006 L 393.188 23.006 Q 395.886 20.308 400.856 20.308 L 400.856 20.308 L 436.498 20.308 L 436.498 20.308 Q 452.828 20.308 461.916 28.544 L 461.916 28.544 L 461.916 28.544 Q 471.004 36.78 471.004 51.548 L 471.004 51.548 L 471.004 51.548 Q 471.004 66.316 461.916 74.552 L 461.916 74.552 L 461.916 74.552 Q 452.828 82.788 436.498 82.788 L 436.498 82.788 L 412.642 82.788 L 412.642 110.194 L 412.642 110.194 Q 412.642 115.306 409.66 118.288 L 409.66 118.288 L 409.66 118.288 Q 406.678 121.27 401.566 121.27 L 401.566 121.27 L 401.566 121.27 Z  M 412.642 66.032 L 433.658 66.032 L 433.658 66.032 Q 450.272 66.032 450.272 51.69 L 450.272 51.69 L 450.272 51.69 Q 450.272 37.206 433.658 37.206 L 433.658 37.206 L 412.642 37.206 L 412.642 66.032 L 412.642 66.032 Z " fill-rule="evenodd" fill="rgb(56,112,228)"/></g></svg>