<?xml version="1.0" standalone="no"?><!-- Generator: Gravit.io --><svg xmlns="http://www.w3.org/2000/svg" xmlns:xlink="http://www.w3.org/1999/xlink" style="isolation:isolate" viewBox="0 0 200 200" width="200" height="200"><defs><clipPath id="_clipPath_f2F0g65SVxj26MQAOaR33s3xWiVWD9ic"><rect width="200" height="200"/></clipPath></defs><g clip-path="url(#_clipPath_f2F0g65SVxj26MQAOaR33s3xWiVWD9ic)"><path d="M 20.708 0 L 179.292 0 C 190.721 0 200 9.279 200 20.708 L 200 179.292 C 200 190.721 190.721 200 179.292 200 L 20.708 200 C 9.279 200 0 190.721 0 179.292 L 0 20.708 C 0 9.279 9.279 0 20.708 0 Z" style="stroke:none;fill:#3870E4;stroke-miterlimit:10;"/><path d=" M 30.808 74.088 C 33.709 71.079 37.682 67.924 40.591 69.284 C 43.672 70.723 45.505 77.657 47.347 80.487 C 52.546 88.473 65.338 89.742 70.913 81.993 C 75.894 75.071 77.212 65.518 67.805 59.496 C 65.568 58.063 57.869 55.121 57.136 52.028 C 56.589 49.723 61.393 43.487 64.608 41.177 C 68.498 38.383 71.499 35.261 75.192 32.905 L 89.689 23.92 L 89.956 24.187 C 93.277 30.753 97.89 36.942 102.224 43.393 Q 104.58 46.193 106.936 48.994 C 109.426 52.478 115.185 57.113 117.872 56.372 C 120.778 55.572 123.73 47.954 125.256 45.611 C 130.543 37.489 143.333 36.072 148.91 43.828 C 150.18 45.593 151.505 47.151 152.199 48.896 C 154.374 54.359 152.83 62.623 145.348 67.127 C 142.773 68.677 135.492 70.656 134.854 74.065 C 134.259 77.239 138.745 82.439 142.41 85.002 C 147.621 88.645 152.422 92.139 157.614 95.225 Q 161.748 97.67 165.883 100.114 L 159.923 110.164 C 157.175 114.811 153.931 119.031 150.672 123.683 C 148.033 127.449 142.87 131.639 139.821 131.156 C 136.302 130.598 134.184 123.062 132.532 120.308 C 126.789 110.74 116.918 111.795 109.945 116.756 C 101.714 122.611 103.361 135.687 112.074 140.944 C 114.196 142.224 122.674 145.654 122.387 148.945 C 122.133 151.867 118.595 155.048 115.715 157.927 C 109.615 164.028 103.516 167.971 97.305 171.537 C 95.853 172.371 90.562 176.271 89.478 175.985 C 85.695 167.879 79.474 159.452 72.943 151.623 C 70.122 148.24 64.775 143.042 61.829 143.71 C 58.68 144.424 55.741 152.157 54.09 154.65 C 48.466 163.144 35.739 163.997 29.635 155.278 C 24.826 148.409 24.616 138.703 34.175 132.956 C 36.737 131.416 43.947 129.49 44.581 126.107 C 45.121 123.223 41.338 118.291 37.824 115.792 C 33.066 112.409 28.78 109.095 24.043 106.28 Q 18.797 103.169 13.551 100.058 L 24.315 82.537 L 30.808 74.088 Z " fill-rule="evenodd" fill="rgb(255,255,255)"/><path d=" M 51.035 74.088 C 53.936 71.079 57.909 67.924 60.818 69.284 C 63.9 70.723 65.732 77.657 67.575 80.487 C 72.774 88.473 85.565 89.742 91.141 81.993 C 96.121 75.071 97.44 65.518 88.033 59.496 C 85.796 58.063 78.097 55.121 77.364 52.028 C 76.817 49.723 81.621 43.487 84.836 41.177 C 88.726 38.383 91.727 35.261 95.42 32.905 L 109.917 23.92 L 110.184 24.187 C 113.505 30.753 118.118 36.942 122.452 43.393 Q 124.807 46.193 127.164 48.994 C 129.654 52.478 135.413 57.113 138.1 56.372 C 141.006 55.572 143.958 47.954 145.483 45.611 C 150.771 37.489 163.561 36.072 169.138 43.828 C 170.408 45.593 171.733 47.151 172.427 48.896 C 174.602 54.359 173.058 62.623 165.576 67.127 C 163.001 68.677 155.72 70.656 155.081 74.065 C 154.487 77.239 158.972 82.439 162.638 85.002 C 167.849 88.645 172.65 92.139 177.842 95.225 Q 181.976 97.67 186.111 100.114 L 180.151 110.164 C 177.403 114.811 174.159 119.031 170.899 123.683 C 168.261 127.449 163.098 131.639 160.049 131.156 C 156.53 130.598 154.412 123.062 152.759 120.308 C 147.017 110.74 137.146 111.795 130.172 116.756 C 121.942 122.611 123.589 135.687 132.301 140.944 C 134.424 142.224 142.902 145.654 142.615 148.945 C 142.361 151.867 138.822 155.048 135.943 157.927 C 129.842 164.028 123.743 167.971 117.532 171.537 C 116.081 172.371 110.79 176.271 109.706 175.985 C 105.922 167.879 99.702 159.452 93.171 151.623 C 90.349 148.24 85.003 143.042 82.056 143.71 C 78.908 144.424 75.968 152.157 74.317 154.65 C 68.693 163.144 55.966 163.997 49.862 155.278 C 45.053 148.409 44.843 138.703 54.402 132.956 C 56.965 131.416 64.174 129.49 64.808 126.107 C 65.349 123.223 61.566 118.291 58.052 115.792 C 53.294 112.409 49.008 109.095 44.27 106.28 Q 39.025 103.169 33.778 100.058 L 44.543 82.537 L 51.035 74.088 Z " fill-rule="evenodd" fill="rgb(34,64,125)"/></g></svg>